# xmcd
#
# Track frame offsets:
#	150
#	24802
#	47337
#	88890
#	98026
#	103071
#	120551
#	135243
#	145715
#	157217
#	166989
#	191080
#	218128
#	237384
#
# Disc length: 3538 seconds
#
# Revision: 1
# Processed by: cddbd v1.5.2PL0 Copyright (c) Steve Scherf et al.
# Submitted via: audiograbber 1.83.01
#
DISCID=b60dd00e
DTITLE=Die Strottern and Jazz Werkstatt Wien - Wo fangt's an
DYEAR=2016
DGENRE=
TTITLE0=Schaun, zaahn, drahn
TTITLE1=Aufn Banket
TTITLE2=Fasink
TTITLE3=Josef Mayer-Limberg Suite - Unddan Geschdeig
TTITLE4=Josef Mayer-Limberg Suite - A Aggd
TTITLE5=Josef Mayer-Limberg Suite - Mamma, sogd da Hausmasda
TTITLE6=Josef Mayer-Limberg Suite - A Oaschloch allane ch
TTITLE7=Josef Mayer-Limberg Suite - En ana Eggn
TTITLE8=Josef Mayer-Limberg Suite - Faschdeggnschbün
TTITLE9=Josef Mayer-Limberg Suite - Waun de Rosn  en Bag
TTITLE10=Wo fangts an
TTITLE11=Gemma bitte
TTITLE12=Zaubern
TTITLE13=Bei dia
EXTD=
EXTT0=
EXTT1=
EXTT2=
EXTT3=
EXTT4=
EXTT5=
EXTT6=
EXTT7=
EXTT8=
EXTT9=
EXTT10=
EXTT11=
EXTT12=
EXTT13=
PLAYORDER=
